<mxfile host="65bd71144e">
    <diagram id="-sP7Vog0kfrc2KqKxCqc" name="Page-1">
        <mxGraphModel dx="822" dy="279" grid="1" gridSize="10" guides="1" tooltips="1" connect="1" arrows="1" fold="1" page="1" pageScale="1" pageWidth="850" pageHeight="1100" math="0" shadow="0">
            <root>
                <mxCell id="0"/>
                <mxCell id="1" parent="0"/>
                <mxCell id="9" value="" style="group" parent="1" vertex="1" connectable="0">
                    <mxGeometry x="140" y="40" width="730" height="650" as="geometry"/>
                </mxCell>
                <mxCell id="6" value="" style="shape=folder;fontStyle=1;spacingTop=10;tabWidth=70;tabHeight=30;tabPosition=left;html=1;whiteSpace=wrap;" parent="9" vertex="1">
                    <mxGeometry width="730" height="650" as="geometry"/>
                </mxCell>
                <mxCell id="8" value="models" style="text;html=1;align=center;verticalAlign=middle;resizable=0;points=[];autosize=1;strokeColor=none;fillColor=none;" parent="9" vertex="1">
                    <mxGeometry width="70" height="30" as="geometry"/>
                </mxCell>
                <mxCell id="17" value="&lt;div&gt;Song&lt;/div&gt;" style="swimlane;fontStyle=1;align=center;verticalAlign=top;childLayout=stackLayout;horizontal=1;startSize=40;horizontalStack=0;resizeParent=1;resizeParentMax=0;resizeLast=0;collapsible=1;marginBottom=0;whiteSpace=wrap;html=1;" parent="9" vertex="1">
                    <mxGeometry x="63.875490196078424" y="80" width="180" height="120" as="geometry">
                        <mxRectangle x="550" y="190" width="110" height="40" as="alternateBounds"/>
                    </mxGeometry>
                </mxCell>
                <mxCell id="18" value="- title: String&lt;div&gt;- duration: float&lt;br&gt;&lt;div&gt;- currentPlayTime: float&lt;br&gt;&lt;/div&gt;&lt;/div&gt;" style="text;strokeColor=none;fillColor=none;align=left;verticalAlign=top;spacingLeft=4;spacingRight=4;overflow=hidden;rotatable=0;points=[[0,0.5],[1,0.5]];portConstraint=eastwest;whiteSpace=wrap;html=1;" parent="17" vertex="1">
                    <mxGeometry y="40" width="180" height="60" as="geometry"/>
                </mxCell>
                <mxCell id="19" value="" style="line;strokeWidth=1;fillColor=none;align=left;verticalAlign=middle;spacingTop=-1;spacingLeft=3;spacingRight=3;rotatable=0;labelPosition=right;points=[];portConstraint=eastwest;strokeColor=inherit;" parent="17" vertex="1">
                    <mxGeometry y="100" width="180" height="8" as="geometry"/>
                </mxCell>
                <mxCell id="20" value="&lt;div&gt;&lt;br&gt;&lt;/div&gt;" style="text;strokeColor=none;fillColor=none;align=left;verticalAlign=top;spacingLeft=4;spacingRight=4;overflow=hidden;rotatable=0;points=[[0,0.5],[1,0.5]];portConstraint=eastwest;whiteSpace=wrap;html=1;" parent="17" vertex="1">
                    <mxGeometry y="108" width="180" height="12" as="geometry"/>
                </mxCell>
                <mxCell id="38" style="edgeStyle=none;html=1;exitX=0.5;exitY=1;exitDx=0;exitDy=0;entryX=0.5;entryY=0;entryDx=0;entryDy=0;" parent="9" source="10" target="2" edge="1">
                    <mxGeometry relative="1" as="geometry"/>
                </mxCell>
                <mxCell id="10" value="&lt;div&gt;Album&lt;/div&gt;" style="swimlane;fontStyle=1;align=center;verticalAlign=top;childLayout=stackLayout;horizontal=1;startSize=40;horizontalStack=0;resizeParent=1;resizeParentMax=0;resizeLast=0;collapsible=1;marginBottom=0;whiteSpace=wrap;html=1;" parent="9" vertex="1">
                    <mxGeometry x="307.74509803921563" y="90" width="150.2941176470588" height="118" as="geometry">
                        <mxRectangle x="550" y="190" width="110" height="40" as="alternateBounds"/>
                    </mxGeometry>
                </mxCell>
                <mxCell id="11" value="&lt;font style=&quot;color: light-dark(rgb(0, 0, 0), rgb(255, 255, 255));&quot;&gt;- albumName: String&lt;/font&gt;&lt;div&gt;&lt;font style=&quot;color: light-dark(rgb(0, 0, 0), rgb(255, 255, 255));&quot;&gt;- publishYear: int&lt;br&gt;&lt;/font&gt;&lt;div&gt;&lt;font style=&quot;color: light-dark(rgb(0, 0, 0), rgb(255, 255, 255));&quot;&gt;- songs: List &amp;lt;Song&amp;gt;&lt;/font&gt;&lt;/div&gt;&lt;div&gt;- artists: List &amp;lt;Artist&amp;gt;&lt;/div&gt;&lt;/div&gt;" style="text;strokeColor=none;fillColor=none;align=left;verticalAlign=top;spacingLeft=4;spacingRight=4;overflow=hidden;rotatable=0;points=[[0,0.5],[1,0.5]];portConstraint=eastwest;whiteSpace=wrap;html=1;" parent="10" vertex="1">
                    <mxGeometry y="40" width="150.2941176470588" height="70" as="geometry"/>
                </mxCell>
                <mxCell id="12" value="" style="line;strokeWidth=1;fillColor=none;align=left;verticalAlign=middle;spacingTop=-1;spacingLeft=3;spacingRight=3;rotatable=0;labelPosition=right;points=[];portConstraint=eastwest;strokeColor=inherit;" parent="10" vertex="1">
                    <mxGeometry y="110" width="150.2941176470588" height="8" as="geometry"/>
                </mxCell>
                <mxCell id="26" value="" style="endArrow=diamondThin;endFill=1;endSize=24;html=1;exitX=0.635;exitY=0.983;exitDx=0;exitDy=0;entryX=1.006;entryY=1.054;entryDx=0;entryDy=0;entryPerimeter=0;startArrow=classicThin;startFill=1;exitPerimeter=0;" parent="9" source="32" edge="1">
                    <mxGeometry width="160" relative="1" as="geometry">
                        <mxPoint x="306.6650980392157" y="124.68" as="sourcePoint"/>
                        <mxPoint x="243.87549019607823" y="163.99999999999994" as="targetPoint"/>
                    </mxGeometry>
                </mxCell>
                <mxCell id="32" value="1" style="text;html=1;align=center;verticalAlign=middle;resizable=0;points=[];autosize=1;strokeColor=none;fillColor=none;" parent="9" vertex="1">
                    <mxGeometry x="286.27450980392155" y="134" width="30" height="30" as="geometry"/>
                </mxCell>
                <mxCell id="33" value="*" style="text;html=1;align=center;verticalAlign=middle;resizable=0;points=[];autosize=1;strokeColor=none;fillColor=none;" parent="9" vertex="1">
                    <mxGeometry x="236.17647058823528" y="164" width="30" height="30" as="geometry"/>
                </mxCell>
                <mxCell id="22" value="&lt;div&gt;Playlist&lt;/div&gt;" style="swimlane;fontStyle=1;align=center;verticalAlign=top;childLayout=stackLayout;horizontal=1;startSize=40;horizontalStack=0;resizeParent=1;resizeParentMax=0;resizeLast=0;collapsible=1;marginBottom=0;whiteSpace=wrap;html=1;" parent="9" vertex="1">
                    <mxGeometry x="68.24000000000001" y="320" width="171.27" height="130" as="geometry">
                        <mxRectangle x="550" y="190" width="110" height="40" as="alternateBounds"/>
                    </mxGeometry>
                </mxCell>
                <mxCell id="23" value="- playlistName: List &amp;lt;Song&amp;gt;&lt;div&gt;&lt;br&gt;&lt;/div&gt;" style="text;strokeColor=none;fillColor=none;align=left;verticalAlign=top;spacingLeft=4;spacingRight=4;overflow=hidden;rotatable=0;points=[[0,0.5],[1,0.5]];portConstraint=eastwest;whiteSpace=wrap;html=1;" parent="22" vertex="1">
                    <mxGeometry y="40" width="171.27" height="30" as="geometry"/>
                </mxCell>
                <mxCell id="24" value="" style="line;strokeWidth=1;fillColor=none;align=left;verticalAlign=middle;spacingTop=-1;spacingLeft=3;spacingRight=3;rotatable=0;labelPosition=right;points=[];portConstraint=eastwest;strokeColor=inherit;" parent="22" vertex="1">
                    <mxGeometry y="70" width="171.27" height="8" as="geometry"/>
                </mxCell>
                <mxCell id="25" value="&lt;div&gt;+ addSong(song: Song)&lt;/div&gt;&lt;div&gt;+ removeSong(song: Song)&lt;/div&gt;" style="text;strokeColor=none;fillColor=none;align=left;verticalAlign=top;spacingLeft=4;spacingRight=4;overflow=hidden;rotatable=0;points=[[0,0.5],[1,0.5]];portConstraint=eastwest;whiteSpace=wrap;html=1;" parent="22" vertex="1">
                    <mxGeometry y="78" width="171.27" height="52" as="geometry"/>
                </mxCell>
                <mxCell id="34" style="edgeStyle=none;html=1;exitX=0.5;exitY=0;exitDx=0;exitDy=0;entryX=0.498;entryY=0.991;entryDx=0;entryDy=0;entryPerimeter=0;" parent="9" source="22" target="20" edge="1">
                    <mxGeometry relative="1" as="geometry"/>
                </mxCell>
                <mxCell id="35" value="1" style="text;html=1;align=center;verticalAlign=middle;resizable=0;points=[];autosize=1;strokeColor=none;fillColor=none;" parent="9" vertex="1">
                    <mxGeometry x="150.2941176470588" y="290" width="30" height="30" as="geometry"/>
                </mxCell>
                <mxCell id="36" value="*" style="text;html=1;align=center;verticalAlign=middle;resizable=0;points=[];autosize=1;strokeColor=none;fillColor=none;" parent="9" vertex="1">
                    <mxGeometry x="128.8235294117647" y="240" width="30" height="30" as="geometry"/>
                </mxCell>
                <mxCell id="2" value="&lt;div&gt;&amp;lt;&amp;lt;abstract&amp;gt;&amp;gt;&lt;/div&gt;Artist" style="swimlane;fontStyle=1;align=center;verticalAlign=top;childLayout=stackLayout;horizontal=1;startSize=40;horizontalStack=0;resizeParent=1;resizeParentMax=0;resizeLast=0;collapsible=1;marginBottom=0;whiteSpace=wrap;html=1;" parent="9" vertex="1">
                    <mxGeometry x="307.74509803921563" y="310" width="150.2941176470588" height="92" as="geometry">
                        <mxRectangle x="550" y="190" width="110" height="40" as="alternateBounds"/>
                    </mxGeometry>
                </mxCell>
                <mxCell id="3" value="- artistName: String" style="text;strokeColor=none;fillColor=none;align=left;verticalAlign=top;spacingLeft=4;spacingRight=4;overflow=hidden;rotatable=0;points=[[0,0.5],[1,0.5]];portConstraint=eastwest;whiteSpace=wrap;html=1;" parent="2" vertex="1">
                    <mxGeometry y="40" width="150.2941176470588" height="44" as="geometry"/>
                </mxCell>
                <mxCell id="4" value="" style="line;strokeWidth=1;fillColor=none;align=left;verticalAlign=middle;spacingTop=-1;spacingLeft=3;spacingRight=3;rotatable=0;labelPosition=right;points=[];portConstraint=eastwest;strokeColor=inherit;" parent="2" vertex="1">
                    <mxGeometry y="84" width="150.2941176470588" height="8" as="geometry"/>
                </mxCell>
                <mxCell id="41" value="&lt;div&gt;Composer&lt;/div&gt;" style="swimlane;fontStyle=1;align=center;verticalAlign=top;childLayout=stackLayout;horizontal=1;startSize=40;horizontalStack=0;resizeParent=1;resizeParentMax=0;resizeLast=0;collapsible=1;marginBottom=0;whiteSpace=wrap;html=1;" parent="9" vertex="1">
                    <mxGeometry x="465.1960784313725" y="530" width="150.2941176470588" height="48" as="geometry">
                        <mxRectangle x="550" y="190" width="110" height="40" as="alternateBounds"/>
                    </mxGeometry>
                </mxCell>
                <mxCell id="43" value="" style="line;strokeWidth=1;fillColor=none;align=left;verticalAlign=middle;spacingTop=-1;spacingLeft=3;spacingRight=3;rotatable=0;labelPosition=right;points=[];portConstraint=eastwest;strokeColor=inherit;" parent="41" vertex="1">
                    <mxGeometry y="40" width="150.2941176470588" height="8" as="geometry"/>
                </mxCell>
                <mxCell id="45" value="&lt;div&gt;Singer&lt;/div&gt;" style="swimlane;fontStyle=1;align=center;verticalAlign=top;childLayout=stackLayout;horizontal=1;startSize=40;horizontalStack=0;resizeParent=1;resizeParentMax=0;resizeLast=0;collapsible=1;marginBottom=0;whiteSpace=wrap;html=1;" parent="9" vertex="1">
                    <mxGeometry x="307.74509803921563" y="530" width="150.2941176470588" height="48" as="geometry">
                        <mxRectangle x="550" y="190" width="110" height="40" as="alternateBounds"/>
                    </mxGeometry>
                </mxCell>
                <mxCell id="47" value="" style="line;strokeWidth=1;fillColor=none;align=left;verticalAlign=middle;spacingTop=-1;spacingLeft=3;spacingRight=3;rotatable=0;labelPosition=right;points=[];portConstraint=eastwest;strokeColor=inherit;" parent="45" vertex="1">
                    <mxGeometry y="40" width="150.2941176470588" height="8" as="geometry"/>
                </mxCell>
                <mxCell id="49" value="&lt;div&gt;Writer&lt;/div&gt;" style="swimlane;fontStyle=1;align=center;verticalAlign=top;childLayout=stackLayout;horizontal=1;startSize=40;horizontalStack=0;resizeParent=1;resizeParentMax=0;resizeLast=0;collapsible=1;marginBottom=0;whiteSpace=wrap;html=1;" parent="9" vertex="1">
                    <mxGeometry x="150.2941176470588" y="530" width="150.2941176470588" height="48" as="geometry">
                        <mxRectangle x="550" y="190" width="110" height="40" as="alternateBounds"/>
                    </mxGeometry>
                </mxCell>
                <mxCell id="51" value="" style="line;strokeWidth=1;fillColor=none;align=left;verticalAlign=middle;spacingTop=-1;spacingLeft=3;spacingRight=3;rotatable=0;labelPosition=right;points=[];portConstraint=eastwest;strokeColor=inherit;" parent="49" vertex="1">
                    <mxGeometry y="40" width="150.2941176470588" height="8" as="geometry"/>
                </mxCell>
                <mxCell id="53" value="" style="endArrow=block;endFill=0;endSize=12;html=1;exitX=0.5;exitY=0;exitDx=0;exitDy=0;entryX=0.49;entryY=1.092;entryDx=0;entryDy=0;entryPerimeter=0;" parent="9" source="45" edge="1">
                    <mxGeometry width="160" relative="1" as="geometry">
                        <mxPoint x="314.9019607843137" y="620" as="sourcePoint"/>
                        <mxPoint x="381.3892156862746" y="443.496" as="targetPoint"/>
                    </mxGeometry>
                </mxCell>
                <mxCell id="57" value="" style="endArrow=block;endFill=0;endSize=12;html=1;exitX=0.5;exitY=0;exitDx=0;exitDy=0;entryX=0;entryY=0.5;entryDx=0;entryDy=0;" parent="9" source="49" edge="1">
                    <mxGeometry width="160" relative="1" as="geometry">
                        <mxPoint x="390.0490196078431" y="540" as="sourcePoint"/>
                        <mxPoint x="307.7450980392157" y="421" as="targetPoint"/>
                    </mxGeometry>
                </mxCell>
                <mxCell id="58" value="" style="endArrow=block;endFill=0;endSize=12;html=1;exitX=0.5;exitY=0;exitDx=0;exitDy=0;entryX=1;entryY=0.5;entryDx=0;entryDy=0;" parent="9" source="41" edge="1">
                    <mxGeometry width="160" relative="1" as="geometry">
                        <mxPoint x="318.4803921568627" y="590" as="sourcePoint"/>
                        <mxPoint x="458.0392156862745" y="421" as="targetPoint"/>
                    </mxGeometry>
                </mxCell>
            </root>
        </mxGraphModel>
    </diagram>
</mxfile>